<?xml version="1.0" standalone="no"?><!DOCTYPE svg PUBLIC "-//W3C//DTD SVG 1.1//EN" "http://www.w3.org/Graphics/SVG/1.1/DTD/svg11.dtd"><svg t="1583979327951" class="icon" viewBox="0 0 1024 1024" version="1.1" xmlns="http://www.w3.org/2000/svg" p-id="2097" xmlns:xlink="http://www.w3.org/1999/xlink" width="200" height="200"><defs><style type="text/css"></style></defs><path d="M359.261 495.219q85.098-85.098 341.118-341.118 5.091-5.819 5.091-10.91 0-5.091-5.091-10.183-5.091-5.091-10.183-5.091-5.091 0-10.91 5.091-119.282 118.555-357.119 356.392-5.091 5.091-5.091 10.183 0 5.819 5.091 10.91 0.727 0 1.455 0.727 88.734 89.462 355.665 356.392 5.819 5.091 10.91 5.091 5.091 0 10.183-5.091 5.091-4.364 5.091-10.183 0-5.819-5.091-10.91-113.464-113.464-341.118-341.118-1.455-2.182-1.455-5.091 0-2.909 1.455-5.091z" p-id="2098"></path></svg>