<?xml version="1.0" standalone="no"?><!DOCTYPE svg PUBLIC "-//W3C//DTD SVG 1.1//EN" "http://www.w3.org/Graphics/SVG/1.1/DTD/svg11.dtd"><svg t="1585905644816" class="icon" viewBox="0 0 1024 1024" version="1.1" xmlns="http://www.w3.org/2000/svg" p-id="3056" xmlns:xlink="http://www.w3.org/1999/xlink" width="200" height="200"><defs><style type="text/css"></style></defs><path d="M511.6928 471.9616l140.8-140.8c11.0592-11.0592 29.0816-11.0592 40.2432 0 11.0592 11.0592 11.0592 29.0816 0 40.2432L551.8336 512.2048l140.8 140.8c11.0592 11.0592 11.0592 29.0816 0 40.2432s-29.0816 11.0592-40.2432 0L511.6928 552.448 370.8928 693.248c-11.0592 11.0592-29.0816 11.0592-40.2432 0-11.0592-11.0592-11.0592-29.0816 0-40.2432l140.8-140.8-140.8-140.8c-11.0592-11.0592-11.0592-29.0816 0-40.2432 11.0592-11.0592 29.0816-11.0592 40.2432 0l140.8 140.8z" fill="#323233" p-id="3057"></path><path d="M512 910.2336c219.9552 0 398.2336-178.2784 398.2336-398.2336S731.9552 113.7664 512 113.7664 113.7664 292.0448 113.7664 512 292.0448 910.2336 512 910.2336z m0 56.832c-251.392 0-455.0656-203.776-455.0656-455.0656S260.608 56.9344 512 56.9344s455.0656 203.776 455.0656 455.0656S763.392 967.0656 512 967.0656z" fill="#323233" p-id="3058"></path></svg>