<?xml version="1.0" standalone="no"?><!DOCTYPE svg PUBLIC "-//W3C//DTD SVG 1.1//EN" "http://www.w3.org/Graphics/SVG/1.1/DTD/svg11.dtd"><svg t="1585121433501" class="icon" viewBox="0 0 1024 1024" version="1.1" xmlns="http://www.w3.org/2000/svg" p-id="1238" xmlns:xlink="http://www.w3.org/1999/xlink" width="200" height="200"><defs><style type="text/css"></style></defs><path d="M705.8 331.7l199-230.6L863 64 653.4 306.7c-46.7-19.5-94.8-32.1-141.4-32.1-208.7 0-448 252.3-448 252.3s106 111.7 238.4 186.5L121.6 922.8l41.9 37.2 190.2-220.4c51.9 23.7 106 39.5 158.3 39.5 208.7 0 448-252.3 448-252.3S845.5 406.2 705.8 331.7zM344 526.9c0-92.9 75.3-168.2 168-168.2 28.7 0 55.7 7.2 79.4 19.9l-38 44c-12.8-5.1-26.7-7.9-41.3-7.9-61.8 0-112 50.3-112 112.1 0 20.4 5.5 39.5 15 56l-38 44C356.3 599 344 564.4 344 526.9z m168 168.2c-35.1 0-67.7-10.8-94.6-29.2l37-42.8c16.8 10.2 36.6 16 57.6 16 61.8 0 112-50.3 112-112.1 0-26.9-9.5-51.6-25.3-71l37-42.8C663.2 443 680 483 680 526.9c0 92.8-75.2 168.2-168 168.2z" p-id="1239"></path></svg>