<?xml version="1.0" standalone="no"?><!DOCTYPE svg PUBLIC "-//W3C//DTD SVG 1.1//EN" "http://www.w3.org/Graphics/SVG/1.1/DTD/svg11.dtd"><svg t="1585908683365" class="icon" viewBox="0 0 1024 1024" version="1.1" xmlns="http://www.w3.org/2000/svg" p-id="1244" xmlns:xlink="http://www.w3.org/1999/xlink" width="200" height="200"><defs><style type="text/css"></style></defs><path d="M511.5 816.9c-80.1 0-162.7-26.4-245.8-78.3-39.1-24.5-99.6-68.4-165-138.1-21-22.4-33-55.1-33-90s12-67.6 33-90c36.1-38.5 94.1-93.7 165-138.1 83-52 165.7-78.3 245.8-78.3s162.7 26.4 245.8 78.3c39.1 24.5 99.6 68.4 165 138.1 21 22.4 33 55.1 33 90s-12 67.6-33 90c-36.1 38.5-94.1 93.7-165 138.1-83.1 51.9-165.8 78.3-245.8 78.3z m0-535.4c-151.5 0-287 120.3-354.3 192-7.4 7.9-12 22.1-12 36.9 0 14.9 4.6 29 12 36.9 67.3 71.7 202.8 192 354.3 192s287-120.3 354.3-192c7.4-7.9 12-22.1 12-36.9s-4.6-29-12-36.9c-67.3-71.7-202.9-192-354.3-192z" p-id="1245"></path><path d="M511.5 647.7c-75.7 0-137.3-61.6-137.3-137.3s61.6-137.3 137.3-137.3 137.3 61.6 137.3 137.3-61.6 137.3-137.3 137.3z m0-208.6c-39.4 0-71.4 32-71.4 71.4 0 39.4 32 71.4 71.4 71.4 39.4 0 71.4-32 71.4-71.4 0-39.4-32.1-71.4-71.4-71.4z" p-id="1246"></path><path d="M840.9 181L182 839.9" p-id="1247"></path><path d="M182 878.6c-9.9 0-19.8-3.8-27.4-11.3-15.1-15.1-15.1-39.7 0-54.8l658.9-658.9c15.1-15.1 39.7-15.1 54.8 0 15.1 15.1 15.1 39.7 0 54.8L209.4 867.3c-7.5 7.6-17.5 11.3-27.4 11.3z" p-id="1248"></path></svg>